<svg width="24" height="24" viewBox="0 0 24 24" fill="none" xmlns="http://www.w3.org/2000/svg">
<g clip-path="url(#clip0_155_5899)">
<g clip-path="url(#clip1_155_5899)">
<path d="M12.84 9.78L11.42 8.36C12.11 7.68 13 7.02 14.36 6.57L14.85 8.51C13.96 8.83 13.35 9.28 12.84 9.78ZM18 11L22 7L18 3V6.02C17.19 6.04 16.46 6.1 15.83 6.21L16.32 8.15C16.8 8.08 17.37 8.03 18 8.02V11ZM18 21L22 17L18 13V15.99C14.32 15.89 13.25 14.71 12.12 13.45C11.68 12.95 11.2 12.44 10.57 12C11.06 11.66 11.45 11.27 11.81 10.87L10.4 9.46C9.55 10.39 8.86 11 7 11H2V13H7C9.02 13 9.66 13.71 10.63 14.79C11.87 16.17 13.41 17.87 18 17.99V21Z" fill="#09173A"/>
</g>
</g>
<defs>
<clipPath id="clip0_155_5899">
<rect width="24" height="24" fill="white"/>
</clipPath>
<clipPath id="clip1_155_5899">
<rect width="24" height="24" fill="white"/>
</clipPath>
</defs>
</svg>
