<svg width="24" height="24" viewBox="0 0 24 24" fill="none" xmlns="http://www.w3.org/2000/svg">
<g clip-path="url(#clip0_31_442)">
<g clip-path="url(#clip1_31_442)">
<path d="M21 5H23V19H21V5ZM17 5H19V19H17V5ZM14 5H2C1.45 5 1 5.45 1 6V18C1 18.55 1.45 19 2 19H14C14.55 19 15 18.55 15 18V6C15 5.45 14.55 5 14 5ZM13 17H3V7H13V17Z" fill="#09173A"/>
<path d="M8.00005 11.89C9.077 11.89 9.95005 11.017 9.95005 9.94C9.95005 8.86304 9.077 7.99 8.00005 7.99C6.92309 7.99 6.05005 8.86304 6.05005 9.94C6.05005 11.017 6.92309 11.89 8.00005 11.89Z" fill="#09173A"/>
<path d="M11.8901 15.35C11.8901 14.05 9.30011 13.4 8.00011 13.4C6.70011 13.4 4.11011 14.05 4.11011 15.35V16H11.8901V15.35Z" fill="#09173A"/>
</g>
</g>
<defs>
<clipPath id="clip0_31_442">
<rect width="24" height="24" fill="white"/>
</clipPath>
<clipPath id="clip1_31_442">
<rect width="24" height="24" fill="white"/>
</clipPath>
</defs>
</svg>
